<svg xmlns="http://www.w3.org/2000/svg" width="125.68" height="125.68" viewBox="0 0 125.68 125.68">
  <g id="sq">
    <path d="M113.34,14.66C103,3.86,83.52,1.41,64,1.16c-19.52.25-39,2.7-49.34,13.5C3.86,25,1.41,44.48,1.16,64c.25,19.52,2.7,39,13.5,49.34C25,124.14,44.48,126.59,64,126.84c19.52-.25,39-2.7,49.34-13.5,10.8-10.3,13.25-29.82,13.5-49.34C126.59,44.48,124.14,25,113.34,14.66Z" transform="translate(-1.16 -1.16)" style="fill: #90c12c"/>
  </g>
  <g id="type">
    <g id="bug">
      <circle cx="62.84" cy="62.84" r="50" style="fill: #90c12c"/>
      <path d="M83.53,45.25c-3.07,7.46-9,9.49-16.41,10.16C62.52,69,67.61,83.9,77.28,93.69,95.94,84.87,99.36,58.53,83.53,45.25Z" transform="translate(-1.16 -1.16)" style="fill: #fff"/>
      <path d="M70.59,49.4a17.2,17.2,0,0,0,8.25-7.28,29.58,29.58,0,0,0-6.43-2.57l4.34-5.32a2.34,2.34,0,0,0-3.62-3l-5.9,7.21a25,25,0,0,0-6.46,0l-5.9-7.21a2.34,2.34,0,1,0-3.71,2.86l.09.1,4.34,5.32a29.58,29.58,0,0,0-6.43,2.57A17.28,17.28,0,0,0,70.59,49.4Z" transform="translate(-1.16 -1.16)" style="fill: #fff"/>
      <path d="M50.72,53.06a18,18,0,0,1-6.25-7.81c-.78.68-12.06,10.46-10.16,25.78,1.92,15.51,15.52,22.24,16.41,22.66C60.39,83.9,65.48,69,60.88,55.41,59.26,55.27,54.23,55.52,50.72,53.06Z" transform="translate(-1.16 -1.16)" style="fill: #fff"/>
    </g>
  </g>
</svg>
