<svg xmlns="http://www.w3.org/2000/svg" width="125.68" height="125.68" viewBox="0 0 125.68 125.68">
  <g id="sq">
    <path d="M113.34,14.66C103,3.86,83.52,1.41,64,1.16c-19.52.25-39,2.7-49.34,13.5C3.86,25,1.41,44.48,1.16,64c.25,19.52,2.7,39,13.5,49.34C25,124.14,44.48,126.59,64,126.84c19.52-.25,39-2.7,49.34-13.5,10.8-10.3,13.25-29.82,13.5-49.34C126.59,44.48,124.14,25,113.34,14.66Z" transform="translate(-1.16 -1.16)" style="fill: #096dc4"/>
  </g>
  <g id="type">
    <g id="dragon">
      <circle cx="62.84" cy="62.84" r="50" style="fill: #096dc4"/>
      <path d="M92.82,58.91A29.22,29.22,0,0,0,65.34,35.48a14.18,14.18,0,0,0-.17-10.16,25.63,25.63,0,0,1-6.64,9,16,16,0,0,1-4.09,2.82,44.94,44.94,0,0,0-4.36,2A29.24,29.24,0,0,0,35,63.22a79.29,79.29,0,0,1,9.84-2.4c3-.52,5.95-.78,8.92-1.18,5.47-.78,9.77-4,12.79-8.59A15.53,15.53,0,0,1,58.35,81a20.91,20.91,0,0,0,6.88,8.45,20.38,20.38,0,0,0,5,2.62,5.28,5.28,0,0,0,2.53.55,13.78,13.78,0,0,0,2.92-1.06A29.2,29.2,0,0,0,92.84,58.9ZM45.88,49.16A7.8,7.8,0,0,1,52.41,47a7.87,7.87,0,0,1-6.88,8.74,8.09,8.09,0,0,1-1.84,0A7.82,7.82,0,0,1,45.88,49.16ZM61.2,93.73A29.2,29.2,0,0,1,35.69,71a41.42,41.42,0,0,1,20.74-5A20.68,20.68,0,0,0,61.2,93.73Z" transform="translate(-1.16 -1.16)" style="fill: #fff"/>
    </g>
  </g>
</svg>
