<svg xmlns="http://www.w3.org/2000/svg" width="125.68" height="125.68" viewBox="0 0 125.68 125.68">
  <g id="sq">
    <g id="sq-2" data-name="sq">
      <path d="M112.18,13.5C101.84,2.7,82.36.25,62.84,0c-19.52.25-39,2.7-49.34,13.5C2.7,23.84.25,43.32,0,62.84c.25,19.52,2.7,39,13.5,49.34,10.34,10.8,29.82,13.25,49.34,13.5,19.52-.25,39-2.7,49.34-13.5,10.8-10.3,13.25-29.82,13.5-49.34C125.43,43.32,123,23.84,112.18,13.5Z" style="fill: #5a5366"/>
    </g>
  </g>
  <g id="type">
    <g id="dark">
      <circle cx="64" cy="64" r="50" style="fill: #5a5366"/>
      <path d="M89.12,64A24.62,24.62,0,0,1,56.49,87.27a24.61,24.61,0,0,0,0-46.54A24.62,24.62,0,0,1,89.12,64ZM64,32.75A31.25,31.25,0,1,0,95.25,64,31.25,31.25,0,0,0,64,32.75Z" style="fill: #fff"/>
    </g>
  </g>
</svg>
