<svg xmlns="http://www.w3.org/2000/svg" width="125.68" height="125.68" viewBox="0 0 125.68 125.68">
  <g id="sq">
    <path d="M113.34,14.66C103,3.86,83.52,1.41,64,1.16c-19.52.25-39,2.7-49.34,13.5C3.86,25,1.41,44.48,1.16,64c.25,19.52,2.7,39,13.5,49.34C25,124.14,44.48,126.59,64,126.84c19.52-.25,39-2.7,49.34-13.5,10.8-10.3,13.25-29.82,13.5-49.34C126.59,44.48,124.14,25,113.34,14.66Z" transform="translate(-1.16 -1.16)" style="fill: #f3d23b"/>
  </g>
  <g id="type">
    <g id="electric">
      <circle cx="62.84" cy="62.84" r="50" style="fill: #f3d23b"/>
      <polygon points="46.44 35.5 70.65 35.5 80.81 67.53 65.19 66.75 74.56 93.31 37.06 54.64 55.03 54.64 46.44 35.5" style="fill: #fff"/>
    </g>
  </g>
</svg>
