<svg xmlns="http://www.w3.org/2000/svg" width="125.68" height="125.68" viewBox="0 0 125.68 125.68">
  <g id="sq">
    <path d="M113.34,14.66C103,3.86,83.52,1.41,64,1.16c-19.52.25-39,2.7-49.34,13.5C3.86,25,1.41,44.48,1.16,64c.25,19.52,2.7,39,13.5,49.34C25,124.14,44.48,126.59,64,126.84c19.52-.25,39-2.7,49.34-13.5,10.8-10.3,13.25-29.82,13.5-49.34C126.59,44.48,124.14,25,113.34,14.66Z" transform="translate(-1.16 -1.16)" style="fill: #ce4069"/>
  </g>
  <g id="type">
    <g id="fighting">
      <circle cx="62.84" cy="62.84" r="50" style="fill: #ce4069"/>
      <path d="M31.91,77.39l3.91,9.52a3.27,3.27,0,0,0,6.3-1.24V58a3.27,3.27,0,0,0-6.3-1.24l-3.91,9.52A14.77,14.77,0,0,0,31.91,77.39Z" transform="translate(-1.16 -1.16)" style="fill: #fff"/>
      <path d="M93.3,85.29v-41a4.11,4.11,0,0,0-4.1-4.1h-2a4.11,4.11,0,0,0-4.1,4.1V57.62a1.3,1.3,0,0,1-1.3,1.3h0a1.3,1.3,0,0,1-1.3-1.29h0V44.27a4.11,4.11,0,0,0-4.1-4.1h-2a4.11,4.11,0,0,0-4.1,4.1V57.62a1.3,1.3,0,0,1-1.3,1.3h0a1.31,1.31,0,0,1-1.31-1.3V44.27a4.1,4.1,0,0,0-4.1-4.1h-2a4.1,4.1,0,0,0-4.1,4.1V57.62a1.3,1.3,0,0,1-1.29,1.3h0a1.3,1.3,0,0,1-1.3-1.3V44.27a4.11,4.11,0,0,0-4.11-4.1H49a4.11,4.11,0,0,0-4.1,4.1v41a4.11,4.11,0,0,0,4.1,4.1H89.2A4.11,4.11,0,0,0,93.3,85.29Z" transform="translate(-1.16 -1.16)" style="fill: #fff"/>
    </g>
  </g>
</svg>
