<svg xmlns="http://www.w3.org/2000/svg" width="125.68" height="125.68" viewBox="0 0 125.68 125.68">
  <g id="sq">
    <path d="M113.34,14.66C103,3.86,83.52,1.41,64,1.16c-19.52.25-39,2.7-49.34,13.5C3.86,25,1.41,44.48,1.16,64c.25,19.52,2.7,39,13.5,49.34C25,124.14,44.48,126.59,64,126.84c19.52-.25,39-2.7,49.34-13.5,10.8-10.3,13.25-29.82,13.5-49.34C126.59,44.48,124.14,25,113.34,14.66Z" transform="translate(-1.16 -1.16)" style="fill: #ff9c54"/>
  </g>
  <g id="type">
    <g id="fire">
      <circle cx="62.84" cy="62.84" r="50" style="fill: #ff9c54"/>
      <path d="M80.92,47.29c8,5.69,12.68,16.23,9.14,25.78-3.33,9-12.63,14.64-22,14.91A10.94,10.94,0,1,0,54.69,72.66c-3.91,7.5,2.26,15,9,18,7.63,3.4,16.45.89,22.58-4.38-10.55,14.47-31.9,17-43.62,2.6-8-9.82-8.16-24.22-.92-34.62C40,59.87,41.34,65.56,46,68.69c-4.69-9.38-1.56-16.48,4.8-22.77,3.06-3,7-4.19,10.15-6.83,3.52-2.91,4-7.74,3.31-12a16.1,16.1,0,0,1,8.59,15.41c-8.88,0-12.14,12.39-4.31,16.79C76.2,63.63,85.05,55.05,80.92,47.29Z" transform="translate(-1.16 -1.16)" style="fill: #fff"/>
    </g>
  </g>
</svg>
