<svg xmlns="http://www.w3.org/2000/svg" width="125.68" height="125.68" viewBox="0 0 125.68 125.68">
  <g id="sq">
    <path d="M113.34,14.66C103,3.86,83.52,1.41,64,1.16c-19.52.25-39,2.7-49.34,13.5C3.86,25,1.41,44.48,1.16,64c.25,19.52,2.7,39,13.5,49.34C25,124.14,44.48,126.59,64,126.84c19.52-.25,39-2.7,49.34-13.5,10.8-10.3,13.25-29.82,13.5-49.34C126.59,44.48,124.14,25,113.34,14.66Z" transform="translate(-1.16 -1.16)" style="fill: #92aade"/>
  </g>
  <g id="type">
    <g id="flying">
      <circle cx="62.84" cy="62.84" r="50" style="fill: #92aade"/>
      <path d="M90.56,73.44c-3.29,5.56-7.4,8-12.69,8.59-1.29.14-2.61,0-3.91.2-.93.11-1.56,1.11-.78,1.56,3.8,2.09.36,3.07-.68,3.91a23.84,23.84,0,0,1-37.7-25A23.53,23.53,0,0,1,56.3,45.13c6.48-.29,13-.26,19.53-.08,8.35.2,16-1.36,22.13-8.15,1.13,1.88.66,3.54.38,5.07A24,24,0,0,1,75.05,61.76c-2.34.05-4.68,0-7,.06-.78,0-1.67.18-1.68,1.17,0,.78.78,1,1.43,1,8.6-.43,17.53,1.91,25.35-3.7.57-.41,1.25-1.23,2-.39.61.68.16,1.48-.22,2.16-3.47,6.19-8.63,9.93-15.8,10.57-2.06.19-4.15,0-6.25.12-1.2.06-3.23-.56-3.29,1.06-.07,1.85,2,1.1,3.12,1.09C78.34,74.8,84.05,75.58,90.56,73.44Z" transform="translate(-1.16 -1.16)" style="fill: #fdfdfe"/>
    </g>
  </g>
</svg>
