<svg xmlns="http://www.w3.org/2000/svg" width="125.68" height="125.68" viewBox="0 0 125.68 125.68">
  <g id="sq">
    <path d="M113.34,14.66C103,3.86,83.52,1.41,64,1.16c-19.52.25-39,2.7-49.34,13.5C3.86,25,1.41,44.48,1.16,64c.25,19.52,2.7,39,13.5,49.34C25,124.14,44.48,126.59,64,126.84c19.52-.25,39-2.7,49.34-13.5,10.8-10.3,13.25-29.82,13.5-49.34C126.59,44.48,124.14,25,113.34,14.66Z" transform="translate(-1.16 -1.16)" style="fill: #ec8fe6"/>
  </g>
  <g id="type">
    <circle cx="62.84" cy="62.84" r="50" style="fill: #ec8fe6"/>
    <path d="M100.72,64,81.19,53.33l2.7-9.24-9.22,2.72L64,27.28,53.33,46.81l-9.24-2.72,2.72,9.24L27.28,64,46.81,74.67l-2.72,9.24,9.24-2.72L64,100.72,74.67,81.19l9.24,2.7-2.72-9.22ZM69.25,69.25,64,78.84l-5.25-9.59L49.16,64l9.59-5.25L64,49.16l5.25,9.59L78.84,64Z" transform="translate(-1.16 -1.16)" style="fill: #fff"/>
  </g>
</svg>
