<svg xmlns="http://www.w3.org/2000/svg" width="125.68" height="125.68" viewBox="0 0 125.68 125.68">
  <g id="sq">
    <path d="M113.34,14.66C103,3.86,83.52,1.41,64,1.16c-19.52.25-39,2.7-49.34,13.5C3.86,25,1.41,44.48,1.16,64c.25,19.52,2.7,39,13.5,49.34C25,124.14,44.48,126.59,64,126.84c19.52-.25,39-2.7,49.34-13.5,10.8-10.3,13.25-29.82,13.5-49.34C126.59,44.48,124.14,25,113.34,14.66Z" transform="translate(-1.16 -1.16)" style="fill: #63bb5b"/>
  </g>
  <g id="type">
    <g id="grass">
      <circle cx="62.84" cy="62.84" r="50" style="fill: #63bb5b"/>
      <path d="M91.94,34.6c-2.12-1.86-10.58.18-13,.47a111.25,111.25,0,0,0-23.43,5.17C47.66,43,41.26,47,37.55,54.77A29,29,0,0,0,41,84.87c1.71-1.82,4.16-3.66,5.51-5.75,1.81-2.79.82-8.36,1-11.86,0-1,.42-15.31,1.11-15.35.85-.06,3,14,3.81,19.17a.93.93,0,0,0,1.08.76.88.88,0,0,0,.48-.24q2.79-2.76,5.6-5.47c1.28-1.24,1.92-1.72,2.27-3.34s.08-3.82.19-5.53c.06-1,.78-13.88,1.71-13.94s2.85,10,3.57,13.8a.77.77,0,0,0,1,.54.8.8,0,0,0,.29-.15c3.8-3.68,15.63-15.18,16.18-14.67s-9.26,13.72-12.41,18a.78.78,0,0,0,.24,1.08.84.84,0,0,0,.31.12c3.84.21,14.07.87,14.15,1.72S74.32,67.07,73.4,67.25c-1.56.32-3.31.43-4.87.84-2,.52-2.34,1-3.6,2.76L60.24,77.1A1,1,0,0,0,61,78.62c5.28.08,19.44.4,19.53,1.25,0,.7-14.06,2.95-15.08,3.12-3.23.56-8.68.34-11.27,2-2,1.31-3.82,4.83-5.34,6.69a29,29,0,0,0,29.42,0C85.74,87.24,89.18,80.44,91,72.19A108.54,108.54,0,0,0,93.2,47.87a88.08,88.08,0,0,0-.41-8.9C92.67,38,92.77,35.34,91.94,34.6Z" transform="translate(-1.16 -1.16)" style="fill: #fff"/>
    </g>
  </g>
</svg>
