<svg xmlns="http://www.w3.org/2000/svg" width="125.68" height="125.68" viewBox="0 0 125.68 125.68">
  <g id="sq">
    <path d="M113.34,14.66C103,3.86,83.52,1.41,64,1.16c-19.52.25-39,2.7-49.34,13.5C3.86,25,1.41,44.48,1.16,64c.25,19.52,2.7,39,13.5,49.34C25,124.14,44.48,126.59,64,126.84c19.52-.25,39-2.7,49.34-13.5,10.8-10.3,13.25-29.82,13.5-49.34C126.59,44.48,124.14,25,113.34,14.66Z" transform="translate(-1.16 -1.16)" style="fill: #5269ac"/>
  </g>
  <g id="type">
    <g id="ghost">
      <circle cx="62.84" cy="62.84" r="50" style="fill: #5269ac"/>
      <path d="M92.32,63.22c0-26-32.23-39.69-51-21.67C22.47,59.74,35.45,92.48,61.66,93.28c13.67,0,20-1.15,29.62-3.62a28.6,28.6,0,0,1-8-5A30,30,0,0,0,92.32,63.22ZM50.13,65.56a7.23,7.23,0,0,1-2.06-14.15A9.65,9.65,0,0,0,48,52.48a7.21,7.21,0,0,0,7.2,7.22,7,7,0,0,0,2.09-.3A7.21,7.21,0,0,1,50.13,65.56Zm24.14,0a7.23,7.23,0,0,1-7.15-6.16,7.21,7.21,0,0,0,9-4.83,7,7,0,0,0,.3-2.09,7.71,7.71,0,0,0-.08-1.07,7.23,7.23,0,0,1-2.06,14.15Z" transform="translate(-1.16 -1.16)" style="fill: #fff"/>
    </g>
  </g>
</svg>
