<svg xmlns="http://www.w3.org/2000/svg" width="125.68" height="125.68" viewBox="0 0 125.68 125.68">
  <g id="sq">
    <path d="M113.34,14.66C103,3.86,83.52,1.41,64,1.16c-19.52.25-39,2.7-49.34,13.5C3.86,25,1.41,44.48,1.16,64c.25,19.52,2.7,39,13.5,49.34C25,124.14,44.48,126.59,64,126.84c19.52-.25,39-2.7,49.34-13.5,10.8-10.3,13.25-29.82,13.5-49.34C126.59,44.48,124.14,25,113.34,14.66Z" transform="translate(-1.16 -1.16)" style="fill: #d97746"/>
  </g>
  <g id="type">
    <g id="ground">
      <circle cx="62.84" cy="62.84" r="50" style="fill: #d97746"/>
      <polygon points="82.37 37.84 58.94 37.84 43.31 81.59 98 81.59 82.37 37.84" style="fill: #fff"/>
      <polygon points="50.34 46.44 37.84 46.44 25.34 81.59 37.84 81.59 50.34 46.44" style="fill: #fff"/>
    </g>
  </g>
</svg>
