<svg xmlns="http://www.w3.org/2000/svg" width="125.68" height="125.68" viewBox="0 0 125.68 125.68">
  <g id="sq">
    <path d="M113.34,14.66C103,3.86,83.52,1.41,64,1.16c-19.52.25-39,2.7-49.34,13.5C3.86,25,1.41,44.48,1.16,64c.25,19.52,2.7,39,13.5,49.34C25,124.14,44.48,126.59,64,126.84c19.52-.25,39-2.7,49.34-13.5,10.8-10.3,13.25-29.82,13.5-49.34C126.59,44.48,124.14,25,113.34,14.66Z" transform="translate(-1.16 -1.16)" style="fill: #74cec0"/>
  </g>
  <g id="type">
    <g id="ice">
      <circle cx="62.84" cy="62.84" r="50" style="fill: #74cec0"/>
      <path d="M61,64.2,43.73,73.92,27.09,64,43.5,54.51ZM84.31,54.08,67,63.8l17.45,9.72L100.87,64ZM62,41.51,45.6,32,45.25,51.4,62.31,61.48ZM82.75,76.6,65.69,66.52l.3,20L82.4,96ZM82.48,51v-19L65.56,41.48l-.21,19.8Zm-20,35.49.21-19.8L45.52,77V96Z" transform="translate(-1.16 -1.16)" style="fill: #fff"/>
    </g>
  </g>
</svg>
