<svg xmlns="http://www.w3.org/2000/svg" width="125.68" height="125.68" viewBox="0 0 125.68 125.68">
  <g id="sq">
    <path d="M113.34,14.66C103,3.86,83.52,1.41,64,1.16c-19.52.25-39,2.7-49.34,13.5C3.86,25,1.41,44.48,1.16,64c.25,19.52,2.7,39,13.5,49.34C25,124.14,44.48,126.59,64,126.84c19.52-.25,39-2.7,49.34-13.5,10.8-10.3,13.25-29.82,13.5-49.34C126.59,44.48,124.14,25,113.34,14.66Z" transform="translate(-1.16 -1.16)" style="fill: #9099a1"/>
  </g>
  <g id="type">
    <g id="normal">
      <circle cx="62.84" cy="62.84" r="50" style="fill: #9099a1"/>
      <path d="M64,95.25A31.25,31.25,0,1,1,95.25,64,31.25,31.25,0,0,1,64,95.25Zm0-50A18.75,18.75,0,1,0,82.75,64,18.74,18.74,0,0,0,64,45.25Z" transform="translate(-1.16 -1.16)" style="fill: #fff"/>
    </g>
  </g>
</svg>
