<svg xmlns="http://www.w3.org/2000/svg" width="125.68" height="125.68" viewBox="0 0 125.68 125.68">
  <g id="sq">
    <path d="M113.34,14.66C103,3.86,83.52,1.41,64,1.16c-19.52.25-39,2.7-49.34,13.5C3.86,25,1.41,44.48,1.16,64c.25,19.52,2.7,39,13.5,49.34C25,124.14,44.48,126.59,64,126.84c19.52-.25,39-2.7,49.34-13.5,10.8-10.3,13.25-29.82,13.5-49.34C126.59,44.48,124.14,25,113.34,14.66Z" transform="translate(-1.16 -1.16)" style="fill: #ab6ac8"/>
  </g>
  <g id="Type">
    <g id="poison">
      <circle cx="62.84" cy="62.84" r="50" style="fill: #ab6ac8"/>
      <path d="M95.25,60.09c0-14.38-14-26-31.25-26s-31.25,11.66-31.25,26c0,7.82,4.16,14.85,10.74,19.64a10.94,10.94,0,0,0-1.37,5.36c0,5.18,3.39,9.38,7.56,9.38,3.25,0,6-2.56,7.09-6.13.93,3.54,3.81,6.13,7.23,6.13s6.3-2.59,7.23-6.13c1.07,3.57,3.84,6.13,7.09,6.13,4.17,0,7.56-4.2,7.56-9.38a10.94,10.94,0,0,0-1.37-5.36C91.09,74.94,95.25,67.91,95.25,60.09ZM64,76c-11.44,0-21.09-7.29-21.09-15.89S52.56,44.21,64,44.21,85.09,51.5,85.09,60.09,75.44,76,64,76Z" transform="translate(-1.16 -1.16)" style="fill: #fff"/>
    </g>
  </g>
</svg>
