<svg xmlns="http://www.w3.org/2000/svg" width="125.68" height="125.68" viewBox="0 0 125.68 125.68">
  <g id="sq">
    <path d="M113.34,14.66C103,3.86,83.52,1.41,64,1.16c-19.52.25-39,2.7-49.34,13.5C3.86,25,1.41,44.48,1.16,64c.25,19.52,2.7,39,13.5,49.34C25,124.14,44.48,126.59,64,126.84c19.52-.25,39-2.7,49.34-13.5,10.8-10.3,13.25-29.82,13.5-49.34C126.59,44.48,124.14,25,113.34,14.66Z" transform="translate(-1.16 -1.16)" style="fill: #f97176"/>
  </g>
  <g id="type">
    <g id="psychic">
      <circle cx="62.84" cy="62.84" r="50" style="fill: #f97176"/>
      <path d="M80.05,88.62c-13.71,7.34-32.41,4-40.53-10-7.42-12.74-3.38-30.64,9-38.71s30.55-4.43,39.14,7.4c10,13.8,2.52,34.49-15.16,36.14-7.44.68-15.63-2.76-19.22-9.61-3.2-6.18-1.66-15.14,4.19-19.22s15.32-3.33,18.29,3.91c1.25,3.08.78,7.27-1.61,9.71-2,2-6.71,2.79-8.89.45-.78-.86-1.63-2.46-.11-3.07.59-.24,2.11.78,2.82.78,3.27-.05,4.31-4.18,2.63-6.61-2-2.94-6.55-2.72-9.11-.73-3.12,2.44-3.51,6.48-2.16,10,2.62,6.81,11.16,8.35,17,4.46C82,69.73,82.87,60.63,80,54.87c-3.91-7.9-14.7-10.22-22.49-7.4S45.2,57.84,45,65.89a22.59,22.59,0,0,0,9.14,18.56C61.76,90,71.19,88.62,80.05,88.62Z" transform="translate(-1.16 -1.16)" style="fill: #fef5f5"/>
    </g>
  </g>
</svg>
