<svg xmlns="http://www.w3.org/2000/svg" width="125.68" height="125.68" viewBox="0 0 125.68 125.68">
  <g id="sq">
    <path d="M113.34,14.66C103,3.86,83.52,1.41,64,1.16c-19.52.25-39,2.7-49.34,13.5C3.86,25,1.41,44.48,1.16,64c.25,19.52,2.7,39,13.5,49.34C25,124.14,44.48,126.59,64,126.84c19.52-.25,39-2.7,49.34-13.5,10.8-10.3,13.25-29.82,13.5-49.34C126.59,44.48,124.14,25,113.34,14.66Z" transform="translate(-1.16 -1.16)" style="fill: #c7b78b"/>
  </g>
  <g id="type">
    <g id="rock">
      <circle cx="62.34" cy="62.59" r="50" style="fill: #c7b78b"/>
      <path d="M87.72,40.31l7.81,24.22L85.38,77l-7-10.94ZM71.31,92.66l10.94-12.5L74.44,69.22,50.22,85.62ZM54.12,40.31,32.25,63.75,33,80.16l11.72,3.9L73.66,64.53l8.59-24.22Z" transform="translate(-1.16 -1.16)" style="fill: #fff"/>
    </g>
  </g>
</svg>
