<svg xmlns="http://www.w3.org/2000/svg" width="125.68" height="125.68" viewBox="0 0 125.68 125.68">
  <g id="sq">
    <path d="M112.84,14.41C102.54,3.61,83,1.16,63.5.91c-19.52.25-39,2.7-49.34,13.5C3.36,24.71.91,44.23.66,63.75c.25,19.52,2.7,39,13.5,49.34,10.3,10.8,29.82,13.25,49.34,13.5,19.52-.25,39-2.7,49.34-13.5,10.8-10.3,13.25-29.82,13.5-49.34C126.09,44.23,123.64,24.71,112.84,14.41Z" transform="translate(-0.66 -0.91)" style="fill: #5a8ea1"/>
  </g>
  <g id="type">
    <g id="steel">
      <circle cx="62.84" cy="62.84" r="50" style="fill: #5a8ea1"/>
      <path d="M79.12,63.75A15.62,15.62,0,1,1,63.5,48.12,15.62,15.62,0,0,1,79.12,63.75Zm1.37-29.43h-34l-17,29.43,17,29.43h34l17-29.43Z" transform="translate(-0.66 -0.91)" style="fill: #fff"/>
    </g>
  </g>
</svg>
