<svg xmlns="http://www.w3.org/2000/svg" width="125.68" height="125.68" viewBox="0 0 125.68 125.68">
  <g id="sqre">
    <path d="M113.34,14.66C103,3.86,83.52,1.41,64,1.16c-19.52.25-39,2.7-49.34,13.5C3.86,25,1.41,44.48,1.16,64c.25,19.52,2.7,39,13.5,49.34C25,124.14,44.48,126.59,64,126.84c19.52-.25,39-2.7,49.34-13.5,10.8-10.3,13.25-29.82,13.5-49.34C126.59,44.48,124.14,25,113.34,14.66Z" transform="translate(-1.16 -1.16)" style="fill: #4d90d5"/>
  </g>
  <g id="type">
    <g id="water">
      <circle cx="62.84" cy="62.84" r="50" style="fill: #4d90d5"/>
      <path d="M86.27,73.38a22.27,22.27,0,0,1-44.54,0c0-12.3,18-39.46,22.27-39.46S86.27,61.08,86.27,73.38ZM66.73,80.8A11.72,11.72,0,0,1,55,69.08h0a11.4,11.4,0,0,1,.87-4.43A13.28,13.28,0,1,0,76.5,75.72v-.16A11.73,11.73,0,0,1,66.73,80.8Z" transform="translate(-1.16 -1.16)" style="fill: #fff"/>
    </g>
  </g>
</svg>
